# xmcd
#
# Track frame offsets:
#	150
#	20056
#	41355
#	57312
#	75608
#	92639
#	114089
#	126251
#	147178
#	163945
#	179769
#
# Disc length: 2575 seconds
#
# Revision: 1
# Processed by: cddbd v1.5.1PL0 Copyright (c) Steve Scherf et al.
# Submitted via: dBpowerAMP V4.0
#
DISCID=920a0d0b
DTITLE=Janey Street - Street Less Traveled
DYEAR=2003
DGENRE=Blues
TTITLE0=Around Midnight
TTITLE1=The Right Thing
TTITLE2=Hangin By A Shoestring
TTITLE3=Sail Away
TTITLE4=He Just Does
TTITLE5=Mistreated
TTITLE6=Flip Flop Wishy Washy Me
TTITLE7=Santa Ana Winds
TTITLE8=Good Will
TTITLE9=Boy Toy
TTITLE10=Hands On The Keys
EXTD=
EXTT0=
EXTT1=
EXTT2=
EXTT3=
EXTT4=
EXTT5=
EXTT6=
EXTT7=
EXTT8=
EXTT9=
EXTT10=
PLAYORDER=
